<svg viewBox="-2 0 30 32" fill="rgb(145, 145, 142)" xmlns="http://www.w3.org/2000/svg">
<path d="M7.09101 20.6434C7.50813 20.2263 7.49239 19.6124 7.07527 19.1953L6.41418 18.5342L3.51009 15.9449L7.75998 16.0551L12.6237 16.0709C12.8992 16.0787 13.1353 15.9685 13.3242 15.7797C13.7728 15.3311 13.8121 14.7093 13.3714 14.2686C13.1589 14.0561 12.8992 13.938 12.6159 13.938L7.75998 13.9459L3.51009 14.0561L6.42205 11.4589L7.07527 10.8057C7.49239 10.3886 7.52387 9.77473 7.09888 9.34974C6.6739 8.92476 6.06002 8.9405 5.63503 9.36548L1.2671 13.7334C0.464339 14.5362 0.464339 15.4649 1.2671 16.2676L5.63503 20.6356C6.04428 21.0448 6.6739 21.0605 7.09101 20.6434ZM24.3739 20.6592L28.7418 16.2912C29.5446 15.4885 29.5524 14.5519 28.7497 13.7492L24.3818 9.38123C23.9725 8.97198 23.3429 8.95624 22.9179 9.38123C22.5087 9.79047 22.5165 10.4122 22.9336 10.8293L23.5947 11.4904L26.5067 14.0718L22.2489 13.9695L17.3931 13.9459C17.1176 13.938 16.8736 14.0561 16.6847 14.245C16.244 14.6857 16.1968 15.3153 16.6375 15.7561C16.85 15.9685 17.1176 16.0787 17.4009 16.0787L22.2489 16.0787L26.5067 15.9607L23.5947 18.5578L22.9336 19.2189C22.5165 19.636 22.485 20.2499 22.91 20.6749C23.335 21.0999 23.9568 21.0763 24.3739 20.6592Z"></path>
</svg>