<svg viewBox="-2 0 16 18" fill="rgb(145, 145, 142)" xmlns="http://www.w3.org/2000/svg">
<path d="M8 14.5586C8.44434 14.5586 8.74512 14.251 8.74512 13.7998V5.30957L8.69043 3.83984L10.4951 5.84961L12.0469 7.38086C12.1836 7.51074 12.3682 7.59961 12.5801 7.59961C12.9902 7.59961 13.291 7.28516 13.291 6.86816C13.291 6.66992 13.2158 6.49219 13.0586 6.32812L8.55371 1.81641C8.40332 1.66602 8.20508 1.57715 8 1.57715C7.79492 1.57715 7.59668 1.66602 7.44629 1.81641L2.94141 6.32812C2.78418 6.49219 2.70898 6.66992 2.70898 6.86816C2.70898 7.28516 3.0166 7.59961 3.42676 7.59961C3.63184 7.59961 3.82324 7.51074 3.95312 7.38086L5.50488 5.84961L7.30957 3.83301L7.25488 5.30957V13.7998C7.25488 14.251 7.5625 14.5586 8 14.5586Z"></path>
</svg>