<svg viewBox="0 0 16 16" class="h-6 w-6" fill="rgb(145, 145, 142)" xmlns="http://www.w3.org/2000/svg">
<path d="M13.5474 2.46289C13.8937 2.80924 14.117 3.22624 14.2173 3.71387C14.3221 4.19694 14.3745 4.75065 14.3745 5.375V10.6182C14.3745 11.2471 14.3221 11.8031 14.2173 12.2861C14.117 12.7692 13.8937 13.1862 13.5474 13.5371C13.1919 13.888 12.7703 14.1159 12.2827 14.2207C11.7951 14.3255 11.2414 14.3779 10.6216 14.3779H5.37842C4.75407 14.3779 4.19808 14.3255 3.71045 14.2207C3.22738 14.1159 2.81038 13.888 2.45947 13.5371C2.104 13.1862 1.87614 12.7692 1.77588 12.2861C1.67562 11.8031 1.62549 11.2471 1.62549 10.6182V5.36816C1.62549 4.74837 1.67562 4.19694 1.77588 3.71387C1.8807 3.23079 2.10856 2.8138 2.45947 2.46289C2.81038 2.11198 3.22738 1.88411 3.71045 1.7793C4.19808 1.67448 4.74951 1.62207 5.36475 1.62207H10.6216C11.2414 1.62207 11.7951 1.67448 12.2827 1.7793C12.7703 1.88411 13.1919 2.11198 13.5474 2.46289ZM13.0347 5.19043C13.0347 4.83496 13.0028 4.50456 12.939 4.19922C12.8797 3.88932 12.7521 3.63867 12.5562 3.44727C12.3693 3.25586 12.1187 3.12826 11.8042 3.06445C11.4943 3.00065 11.1639 2.96875 10.813 2.96875H5.20752C4.84749 2.96875 4.51025 3.00065 4.1958 3.06445C3.88135 3.12826 3.62842 3.25358 3.43701 3.44043C3.25016 3.63639 3.12484 3.88932 3.06104 4.19922C3.00179 4.50911 2.97217 4.84408 2.97217 5.2041V10.8096C2.97217 11.165 3.00179 11.4977 3.06104 11.8076C3.12484 12.113 3.25016 12.3613 3.43701 12.5527C3.62842 12.7396 3.87907 12.8672 4.18896 12.9355C4.50342 12.9993 4.83838 13.0312 5.19385 13.0312H10.813C11.1639 13.0312 11.4943 12.9993 11.8042 12.9355C12.1187 12.8717 12.3693 12.7441 12.5562 12.5527C12.7476 12.3613 12.8752 12.113 12.939 11.8076C13.0028 11.4977 13.0347 11.165 13.0347 10.8096V5.19043ZM4.84521 8C4.84521 7.80859 4.90446 7.65365 5.02295 7.53516C5.14144 7.41211 5.29867 7.35059 5.49463 7.35059H7.36768V5.47754C7.36768 5.29069 7.42692 5.13802 7.54541 5.01953C7.6639 4.89648 7.81429 4.83496 7.99658 4.83496C8.18799 4.83496 8.34294 4.89421 8.46143 5.0127C8.58447 5.13118 8.646 5.28613 8.646 5.47754V7.35059H10.519C10.7104 7.35059 10.8654 7.41211 10.9839 7.53516C11.1024 7.65365 11.1616 7.80859 11.1616 8C11.1616 8.18229 11.1024 8.33268 10.9839 8.45117C10.8654 8.56966 10.7104 8.62891 10.519 8.62891H8.646V10.5088C8.646 10.6956 8.58447 10.8506 8.46143 10.9736C8.34294 11.0921 8.18799 11.1514 7.99658 11.1514C7.81429 11.1514 7.6639 11.0921 7.54541 10.9736C7.42692 10.8506 7.36768 10.6956 7.36768 10.5088V8.62891H5.49463C5.30322 8.62891 5.146 8.56966 5.02295 8.45117C4.90446 8.33268 4.84521 8.18229 4.84521 8Z"></path>
</svg>