<svg viewBox="-2 0 16 18" fill="rgb(145, 145, 142)" xmlns="http://www.w3.org/2000/svg">
<path d="M8 1.57715C7.5625 1.57715 7.25488 1.88477 7.25488 2.33594V10.8262L7.30957 12.3027L5.50488 10.2861L3.95312 8.75488C3.82324 8.625 3.63184 8.53613 3.42676 8.53613C3.0166 8.53613 2.70898 8.85059 2.70898 9.26758C2.70898 9.46582 2.78418 9.64355 2.94141 9.80762L7.44629 14.3193C7.59668 14.4697 7.79492 14.5586 8 14.5586C8.20508 14.5586 8.40332 14.4697 8.55371 14.3193L13.0586 9.80762C13.2158 9.64355 13.291 9.46582 13.291 9.26758C13.291 8.85059 12.9902 8.53613 12.5801 8.53613C12.3682 8.53613 12.1836 8.625 12.0469 8.75488L10.4951 10.2861L8.69043 12.2959L8.74512 10.8262V2.33594C8.74512 1.88477 8.44434 1.57715 8 1.57715Z"></path>
</svg>